<?xml version="1.0" encoding="utf-8"?>
<!-- Generator: Adobe Illustrator 21.0.2, SVG Export Plug-In . SVG Version: 6.00 Build 0)  -->
<svg version="1.1" id="Capa_1" xmlns="http://www.w3.org/2000/svg" xmlns:xlink="http://www.w3.org/1999/xlink" x="0px" y="0px"
	 viewBox="0 0 255.4 270.5" style="enable-background:new 0 0 255.4 270.5;" xml:space="preserve">
<style type="text/css">
	.st0{fill:#FFFFFF;}
</style>
<title>Recurso 1punta</title>
<g>
	<path class="st0" d="M30,99.3c3-3,6.5-4.5,10.6-4.5c4.1,0,7.6,1.5,10.6,4.5c3,3,4.5,6.5,4.5,10.6v70.3c0,4.4-1.5,8-4.5,10.9
		c-3,2.8-6.5,4.2-10.6,4.2c-4.1,0-7.6-1.4-10.6-4.2c-3-2.8-4.5-6.4-4.5-10.9V110C25.5,105.9,27,102.3,30,99.3z M161.4,35.9
		c16.7,12,25,28.2,25,48.6H65.6c0-20.8,8.2-37,24.5-48.6L76.9,22.7c-2.5-2.5-2.5-4.9,0-7.1c2.5-2.2,4.9-2.2,7.1,0l15.1,15.1
		c8.2-4.4,17.1-6.6,26.9-6.6c9.4,0,18.2,2.2,26.4,6.6l15.1-15.1c2.5-2.2,4.9-2.2,7.1,0c2.2,2.2,2.2,4.6,0,7.1L161.4,35.9z
		 M65.6,195.3V94.9h120.8v100.5c0,2.8-0.9,5.2-2.8,7.1c-1.9,1.9-4.2,2.8-7.1,2.8h-10.4v35.4c0,4.4-1.5,8-4.5,10.9
		c-3,2.8-6.5,4.2-10.6,4.2c-4.1,0-7.6-1.4-10.6-4.2c-3-2.8-4.5-6.4-4.5-10.9v-35.4h-19.8v35.4c0,4.4-1.5,8-4.5,10.9
		c-3,2.8-6.5,4.2-10.6,4.2c-4.1,0-7.6-1.4-10.6-4.2c-3-2.8-4.5-6.4-4.5-10.9v-35.4H75.5c-2.8,0-5.2-0.9-7.1-2.8
		C66.5,200.5,65.6,198.2,65.6,195.3z M105.7,64.7V54.3h-9.9v10.4H105.7z M156.2,64.7V54.3h-9.9v10.4H156.2z M200.8,99.3
		c3-3,6.5-4.5,10.6-4.5c4.1,0,7.6,1.5,10.6,4.5c3,3,4.5,6.5,4.5,10.6v70.3c0,4.4-1.5,8-4.5,10.9c-3,2.8-6.5,4.2-10.6,4.2
		c-4.1,0-7.6-1.4-10.6-4.2c-3-2.8-4.5-6.4-4.5-10.9V110C196.3,105.9,197.8,102.3,200.8,99.3z"/>
</g>
</svg>
