<svg xmlns="http://www.w3.org/2000/svg" viewBox="0 0 255.42 270.51"><defs><style>.f959149d-1cea-403b-8c98-448a5a2249da{fill:#fff;}.\31 7cdaac8-5019-4e76-a467-d7005d69c270{fill:none;stroke:#fff;stroke-linecap:round;stroke-linejoin:round;stroke-width:0;}</style></defs><title>Recurso 1punta</title><g id="9b1e3249-8c27-47f1-a060-1910e5ecf30c" data-name="Capa 2"><g id="7ce4c6a4-1d1e-4db2-80c4-4b7a134614f5" data-name="Layer 1"><path class="f959149d-1cea-403b-8c98-448a5a2249da" d="M127.44,270.51l-107.33-59L0,44.8,127.3,0l.16.06,128,44,0,.4L235.31,210.73ZM21,210.89l106.39,58.48L234.38,210.1,254.33,44.69,127.3,1.06,1.09,45.48Z"/><polygon class="f959149d-1cea-403b-8c98-448a5a2249da" points="126.14 79.86 125.93 80.36 125.93 80.36 102.81 135.19 125.93 135.19 125.93 135.19 127.2 135.24 152.61 135.24 126.14 79.86"/><polygon class="f959149d-1cea-403b-8c98-448a5a2249da" points="107.34 66.29 107.34 66.29 107.34 66.29 107.34 66.29"/><path class="f959149d-1cea-403b-8c98-448a5a2249da" d="M126.3,14.75v-.22l-112.24,40L31.23,203.05l94.91,52.64v.25l96.56-53.44L241.35,54Zm53.85,183.06L162.94,158l-36.64,0v-.13H92.87L77.16,197.1l-29.23.54L126.18,23.56l81.93,174.77Z"/><line class="17cdaac8-5019-4e76-a467-d7005d69c270" x1="107.34" y1="200.79" x2="107.34" y2="200.79"/></g></g></svg>