<?xml version="1.0" encoding="utf-8"?>
<!-- Generator: Adobe Illustrator 21.0.2, SVG Export Plug-In . SVG Version: 6.00 Build 0)  -->
<svg version="1.1" id="Capa_1" xmlns="http://www.w3.org/2000/svg" xmlns:xlink="http://www.w3.org/1999/xlink" x="0px" y="0px"
	 viewBox="0 0 255.4 270.5" style="enable-background:new 0 0 255.4 270.5;" xml:space="preserve">
<style type="text/css">
	.st0{fill:#FFFFFF;}
</style>
<title>Recurso 1punta</title>
<g>
	<path class="st0" d="M136.1,53.3c13-17.2,31.2-17.3,31.2-17.3S170,52.2,157,67.7c-13.8,16.6-29.6,13.9-29.6,13.9
		S124.5,68.6,136.1,53.3L136.1,53.3z"/>
	<path class="st0" d="M129.1,93c6.7,0,19.2-9.2,35.4-9.2c27.9,0,38.9,19.9,38.9,19.9s-21.5,11-21.5,37.6c0,30,26.7,40.4,26.7,40.4
		s-18.7,52.6-43.9,52.6c-11.6,0-20.6-7.8-32.8-7.8c-12.5,0-24.8,8.1-32.9,8.1c-23.1,0-52.2-49.9-52.2-90c0-39.5,24.7-60.2,47.8-60.2
		C109.6,84.3,121.3,93,129.1,93L129.1,93z"/>
</g>
</svg>
