<svg xmlns="http://www.w3.org/2000/svg" viewBox="0 0 399.44 29.66"><defs><style>.f0b6e505-b803-4c66-9adb-029f5679267d{fill:#1d1d1b;}</style></defs><title>Recurso 2startupmendoza-logo</title><g id="52f5d31a-15f7-4589-82ad-3bf842773e19" data-name="Capa 2"><g id="f3851080-45c0-4325-8451-069c2c4a3828" data-name="Capa 1"><path class="f0b6e505-b803-4c66-9adb-029f5679267d" d="M143.41,9a2.36,2.36,0,0,0-1.23.28.93.93,0,0,0-.47.85,1.1,1.1,0,0,0,.73,1,13.5,13.5,0,0,0,2.33.8A29.27,29.27,0,0,1,148,13a5.89,5.89,0,0,1,2.22,1.67,4.4,4.4,0,0,1,.93,2.92A5,5,0,0,1,149,21.92a9.11,9.11,0,0,1-5.52,1.55,14.8,14.8,0,0,1-4.4-.65,11.64,11.64,0,0,1-3.73-1.92l1.87-3.83a13.14,13.14,0,0,0,3.22,1.65,9.73,9.73,0,0,0,3.18.58A2.88,2.88,0,0,0,145,19a.89.89,0,0,0,.52-.82,1.13,1.13,0,0,0-.75-1,14.27,14.27,0,0,0-2.35-.8,26.29,26.29,0,0,1-3.13-1.12,5.91,5.91,0,0,1-2.15-1.65,4.33,4.33,0,0,1-.92-2.87,5.06,5.06,0,0,1,2.07-4.28,8.65,8.65,0,0,1,5.33-1.55,14.48,14.48,0,0,1,7.5,2.1l-2,3.87A13.21,13.21,0,0,0,143.41,9Z"/><path class="f0b6e505-b803-4c66-9adb-029f5679267d" d="M214.73,22.27a5.08,5.08,0,0,1-1.69.88,10.55,10.55,0,0,1-2.57.32,6.09,6.09,0,0,1-4.4-1.6,5.85,5.85,0,0,1-1.67-4.43V1h5.87V5.17h3l2,2.32-2,2.31h-3v6.7a2.44,2.44,0,0,0,.47,1.62,1.61,1.61,0,0,0,1.3.55,4.53,4.53,0,0,0,2.1-.6Z"/><path class="f0b6e505-b803-4c66-9adb-029f5679267d" d="M164.84,22.27a8.43,8.43,0,0,1-2.23.88,10.55,10.55,0,0,1-2.57.32,6.09,6.09,0,0,1-4.4-1.6A5.85,5.85,0,0,1,154,17.43V1h5.87V5.19h3l2,2.3-2,2.31h-3v6.7a2.44,2.44,0,0,0,.47,1.62,1.61,1.61,0,0,0,1.3.55,4.53,4.53,0,0,0,2.1-.6Z"/><path class="f0b6e505-b803-4c66-9adb-029f5679267d" d="M186.09,5.17v18h-5.93V20.93a6.35,6.35,0,0,1-2.28,1.85,6.86,6.86,0,0,1-3,.65,8.23,8.23,0,0,1-4.4-1.17A7.84,7.84,0,0,1,167.51,19a10.85,10.85,0,0,1-1-4.88,10.6,10.6,0,0,1,1-4.8,7.58,7.58,0,0,1,2.93-3.2A8.43,8.43,0,0,1,174.83,5a6.83,6.83,0,0,1,3,.67,6.48,6.48,0,0,1,2.3,1.87V5.17ZM179,17.7a4.55,4.55,0,0,0,1.2-2.83v-1.2a4.55,4.55,0,0,0-1.2-2.83,3.51,3.51,0,0,0-2.63-1.07A3.55,3.55,0,0,0,173.51,11a4.78,4.78,0,0,0-1.08,3.25,4.78,4.78,0,0,0,1.08,3.25,3.55,3.55,0,0,0,2.82,1.25A3.51,3.51,0,0,0,179,17.7Z"/><path class="f0b6e505-b803-4c66-9adb-029f5679267d" d="M198,5.77a6.79,6.79,0,0,1,3.38-.83v5.43a9,9,0,0,0-.9,0,5.49,5.49,0,0,0-3.4,1,3.77,3.77,0,0,0-1.5,2.68v9.2h-5.93v-18h5.93v3A6.5,6.5,0,0,1,198,5.77Z"/><path class="f0b6e505-b803-4c66-9adb-029f5679267d" d="M236.25,5.17v18h-5.93V20.27a6.34,6.34,0,0,1-5.77,3.2,6.08,6.08,0,0,1-4.68-1.88,7.07,7.07,0,0,1-1.75-5V5.17h5.93v9.7a3.45,3.45,0,0,0,.78,2.4,2.71,2.71,0,0,0,2.12.87A3.08,3.08,0,0,0,229.42,17a4.5,4.5,0,0,0,.9-2.92V5.17Z"/><path class="f0b6e505-b803-4c66-9adb-029f5679267d" d="M255.24,6.12a7.73,7.73,0,0,1,2.95,3.27,10.85,10.85,0,0,1,1,4.88,10.75,10.75,0,0,1-1,4.8,7.51,7.51,0,0,1-2.9,3.2A8.27,8.27,0,0,1,251,23.4a7.16,7.16,0,0,1-3.08-.65,6.42,6.42,0,0,1-2.35-1.88v4.76l-5.93,4V5.17h5.93V7.5A6.36,6.36,0,0,1,250.84,5,8.33,8.33,0,0,1,255.24,6.12Zm-3,11.25a4.72,4.72,0,0,0,1.08-3.23,4.79,4.79,0,0,0-1.08-3.25,3.55,3.55,0,0,0-2.82-1.25,3.47,3.47,0,0,0-2.77,1.25,4.83,4.83,0,0,0-1.07,3.25,4.76,4.76,0,0,0,1.07,3.23,3.49,3.49,0,0,0,2.77,1.23A3.57,3.57,0,0,0,252.19,17.37Z"/><path class="f0b6e505-b803-4c66-9adb-029f5679267d" d="M266.91,23.05h-3V5.36h4.71L274,16.47l5.41-11.11h4.69V23.05h-3V9.24l-6.25,12.27h-1.69L266.91,9.24Z"/><path class="f0b6e505-b803-4c66-9adb-029f5679267d" d="M301.11,5.36V8.17h-9.56v4.68h8.58v2.66h-8.58v4.73h9.87v2.81H288.53V5.36Z"/><path class="f0b6e505-b803-4c66-9adb-029f5679267d" d="M317.87,5.36h3V23.05h-3.28L307.47,10.15V23.05h-3V5.36h3l10.4,13.21Z"/><path class="f0b6e505-b803-4c66-9adb-029f5679267d" d="M337.69,7.68a8.2,8.2,0,0,1,2.59,6.44,8.61,8.61,0,0,1-2.51,6.53q-2.51,2.41-7.69,2.4h-5.94V5.36h6.15Q335.11,5.36,337.69,7.68Zm-.46,6.52q0-6.07-7-6.07h-3V20.25h3.36a7.29,7.29,0,0,0,5-1.53A5.72,5.72,0,0,0,337.23,14.2Z"/><path class="f0b6e505-b803-4c66-9adb-029f5679267d" d="M358.85,20.61a9.91,9.91,0,0,1-13.43,0,8.7,8.7,0,0,1-2.72-6.53,8.7,8.7,0,0,1,2.72-6.53,9.91,9.91,0,0,1,13.43,0,8.7,8.7,0,0,1,2.72,6.53A8.7,8.7,0,0,1,358.85,20.61ZM356.63,9.54a6.34,6.34,0,0,0-9,0,6.26,6.26,0,0,0-1.83,4.54,6.25,6.25,0,0,0,1.83,4.54,6.33,6.33,0,0,0,9,0,6.25,6.25,0,0,0,1.83-4.54A6.26,6.26,0,0,0,356.63,9.54Z"/><path class="f0b6e505-b803-4c66-9adb-029f5679267d" d="M373.77,8.08h-10.1V5.35H378V7.68l-10.4,12.53v.08H378V23H363.34v-2.3L373.77,8.16Z"/><path class="f0b6e505-b803-4c66-9adb-029f5679267d" d="M385.45,19l-1.79,4h-3.23l7.89-17.69h3.23l7.89,17.69h-3.23l-1.79-4Zm7.74-2.76L389.93,9l-3.25,7.29Z"/><polygon class="f0b6e505-b803-4c66-9adb-029f5679267d" points="126.28 21.69 131.12 13.29 126.28 4.9 123.01 4.9 127.55 13.29 122.92 21.69 126.28 21.69"/><polygon class="f0b6e505-b803-4c66-9adb-029f5679267d" points="119.73 21.69 124.35 13.29 119.81 4.9 116.24 4.9 120.78 13.29 116.15 21.69 119.73 21.69"/><path class="f0b6e505-b803-4c66-9adb-029f5679267d" d="M43.26,10a3.41,3.41,0,0,0-1.93-.43H39.82v4H41.6A2.37,2.37,0,0,0,43.4,13a2.29,2.29,0,0,0,.48-1.56A1.66,1.66,0,0,0,43.26,10Z"/><polygon class="f0b6e505-b803-4c66-9adb-029f5679267d" points="89.64 14.23 92.62 14.23 91.14 10.78 89.64 14.23"/><path class="f0b6e505-b803-4c66-9adb-029f5679267d" d="M55.95,9.88a3.26,3.26,0,0,0-1.79-.36h-2V13h1.94A2.85,2.85,0,0,0,56,12.6a1.79,1.79,0,0,0,.49-1.4A1.5,1.5,0,0,0,55.95,9.88Z"/><path class="f0b6e505-b803-4c66-9adb-029f5679267d" d="M109,23.84l-5.75-10c-.11-.19-.21-.36.1-.87v0l5.87-10,0,0c.14-.25.21-.38.54-.39h15l-.48-.83A3.11,3.11,0,0,0,121.46,0H2.25A2.24,2.24,0,0,0,0,2.23V24.46a2.26,2.26,0,0,0,2.25,2.25H121.37a3.26,3.26,0,0,0,3-1.76l.46-.81h-15C109.22,24.16,109.12,24,109,23.84ZM16.88,19.13H8.13V7.24H16.7V9.61H10.78v2.45H16.1v2.26H10.78v2.46h6.1Zm16.51,0H30.74V11.65l-3.21,6.49H25.94l-3.2-6.49v7.48H20.1V7.24h3.59l3.06,6.53,3.08-6.53h3.57Zm11.93-4.33a6.24,6.24,0,0,1-3.92,1H39.82v3.32H37.16V7.24h4.2a6.1,6.1,0,0,1,4,1.06,4,4,0,0,1,1.25,3.26A3.87,3.87,0,0,1,45.32,14.79Zm11.33,4.33L54,15.34H52.17v3.79H49.52V7.24H54a6.46,6.46,0,0,1,4,.93,3.61,3.61,0,0,1,1.18,3q0,2.86-2.26,3.69l3,4.25Zm14.84,0H62.73V7.24H71.3V9.61H65.38v2.45H70.7v2.26H65.38v2.46h6.1Zm10.6-.86a4.78,4.78,0,0,1-3.15,1,7.3,7.3,0,0,1-5.08-2.09l1.58-1.94A5.63,5.63,0,0,0,79,16.92a1.86,1.86,0,0,0,1.15-.31,1,1,0,0,0,.42-.85,1,1,0,0,0-.44-.85,5.8,5.8,0,0,0-1.75-.64,7.6,7.6,0,0,1-3-1.28,3,3,0,0,1-1-2.48,3.08,3.08,0,0,1,1.22-2.61,4.9,4.9,0,0,1,3-.92A7.31,7.31,0,0,1,81,7.38a6.38,6.38,0,0,1,2.07,1.16l-1.34,1.94a5.24,5.24,0,0,0-3.2-1.17,1.6,1.6,0,0,0-1,.31,1,1,0,0,0-.38.83.94.94,0,0,0,.47.83,8.57,8.57,0,0,0,2.16.72,6.08,6.08,0,0,1,2.63,1.25,3.08,3.08,0,0,1,.94,2.43A3.21,3.21,0,0,1,82.09,18.27Zm12.64.86-1.1-2.57h-5l-1.1,2.57H84.71L89.85,7.24h2.57l5.13,11.88Z"/></g></g></svg>