<?xml version="1.0" encoding="utf-8"?>
<!-- Generator: Adobe Illustrator 21.0.2, SVG Export Plug-In . SVG Version: 6.00 Build 0)  -->
<svg version="1.1" id="Capa_1" xmlns="http://www.w3.org/2000/svg" xmlns:xlink="http://www.w3.org/1999/xlink" x="0px" y="0px"
	 viewBox="0 0 399.4 29.7" style="enable-background:new 0 0 399.4 29.7;" xml:space="preserve">
<style type="text/css">
	.st0{fill:#FFFFFF;}
</style>
<title>Recurso 2startupmendoza-logo</title>
<g id="_x35_2f5d31a-15f7-4589-82ad-3bf842773e19">
	<g id="f3851080-45c0-4325-8451-069c2c4a3828">
		<path class="st0" d="M143.4,9c-0.4,0-0.9,0.1-1.2,0.3c-0.3,0.2-0.5,0.5-0.5,0.9c0,0.5,0.3,0.8,0.7,1c0.8,0.3,1.5,0.6,2.3,0.8
			c1.1,0.3,2.2,0.7,3.2,1.1c0.9,0.4,1.6,0.9,2.2,1.7c0.6,0.8,1,1.9,0.9,2.9c0.1,1.7-0.7,3.4-2.1,4.3c-1.6,1.1-3.6,1.6-5.5,1.5
			c-1.5,0-3-0.2-4.4-0.6c-1.3-0.4-2.6-1.1-3.7-1.9l1.9-3.8c1,0.7,2.1,1.3,3.2,1.6c1,0.4,2.1,0.6,3.2,0.6c0.5,0,1-0.1,1.4-0.3
			c0.3-0.1,0.5-0.5,0.5-0.8c0-0.5-0.3-0.8-0.8-1c-0.8-0.3-1.5-0.6-2.4-0.8c-1.1-0.3-2.1-0.7-3.1-1.1c-0.8-0.4-1.6-0.9-2.1-1.6
			c-0.6-0.8-1-1.8-0.9-2.9c-0.1-1.7,0.7-3.3,2.1-4.3c1.6-1.1,3.4-1.6,5.3-1.5c2.6,0,5.2,0.7,7.5,2.1l-2,3.9
			C147.4,9.8,145.4,9.2,143.4,9z"/>
		<path class="st0" d="M214.7,22.3c-0.5,0.4-1.1,0.7-1.7,0.9c-0.8,0.2-1.7,0.3-2.6,0.3c-1.6,0.1-3.2-0.5-4.4-1.6
			c-1.2-1.2-1.8-2.8-1.7-4.4V1h5.9v4.2h3l2,2.3l-2,2.3h-3v6.7c0,0.6,0.1,1.2,0.5,1.6c0.3,0.4,0.8,0.6,1.3,0.5c0.7,0,1.5-0.2,2.1-0.6
			L214.7,22.3z"/>
		<path class="st0" d="M164.8,22.3c-0.7,0.4-1.4,0.7-2.2,0.9c-0.8,0.2-1.7,0.3-2.6,0.3c-1.6,0.1-3.2-0.5-4.4-1.6
			c-1.1-1.2-1.7-2.8-1.6-4.4V1h5.9v4.2h3l2,2.3l-2,2.3h-3v6.7c0,0.6,0.1,1.2,0.5,1.6c0.3,0.4,0.8,0.6,1.3,0.5c0.7,0,1.5-0.2,2.1-0.6
			L164.8,22.3z"/>
		<path class="st0" d="M186.1,5.2v18h-5.9v-2.2c-0.6,0.8-1.4,1.4-2.3,1.9c-0.9,0.4-2,0.7-3,0.6c-1.5,0-3.1-0.4-4.4-1.2
			c-1.3-0.8-2.3-1.9-3-3.3c-0.7-1.5-1-3.2-1-4.9c0-1.7,0.3-3.3,1-4.8c0.6-1.3,1.7-2.4,2.9-3.2c1.3-0.8,2.9-1.2,4.4-1.1
			c1,0,2.1,0.2,3,0.7c0.9,0.4,1.7,1.1,2.3,1.9V5.2H186.1z M179,17.7c0.7-0.8,1.1-1.8,1.2-2.8v-1.2c-0.1-1.1-0.5-2.1-1.2-2.8
			c-0.7-0.7-1.6-1.1-2.6-1.1c-1.1-0.1-2.1,0.4-2.9,1.2c-0.7,0.9-1.1,2.1-1.1,3.2c-0.1,1.2,0.3,2.3,1.1,3.2c0.7,0.8,1.7,1.3,2.8,1.2
			C177.3,18.8,178.3,18.4,179,17.7z"/>
		<path class="st0" d="M198,5.8c1-0.6,2.2-0.9,3.4-0.8v5.4c-0.3,0-0.6,0-0.9,0c-1.2-0.1-2.4,0.3-3.4,1c-0.9,0.6-1.4,1.6-1.5,2.7v9.2
			h-5.9v-18h5.9v3C196.1,7.2,197,6.4,198,5.8z"/>
		<path class="st0" d="M236.2,5.2v18h-5.9v-2.9c-1.2,2.1-3.4,3.3-5.8,3.2c-1.8,0.1-3.5-0.6-4.7-1.9c-1.2-1.4-1.8-3.2-1.8-5V5.2h5.9
			v9.7c-0.1,0.9,0.2,1.7,0.8,2.4c0.5,0.6,1.3,0.9,2.1,0.9c1,0,1.9-0.4,2.5-1.1c0.6-0.8,0.9-1.9,0.9-2.9V5.2H236.2z"/>
		<path class="st0" d="M255.2,6.1c1.3,0.8,2.3,1.9,2.9,3.3c0.7,1.5,1,3.2,1,4.9c0,1.7-0.3,3.3-1,4.8c-0.6,1.3-1.6,2.4-2.9,3.2
			c-1.3,0.8-2.8,1.2-4.3,1.1c-1.1,0-2.1-0.2-3.1-0.6c-0.9-0.4-1.7-1.1-2.4-1.9v4.8l-5.9,4V5.2h5.9v2.3c1.2-1.6,3.2-2.6,5.3-2.5
			C252.4,5,253.9,5.3,255.2,6.1z M252.2,17.4c0.7-0.9,1.1-2.1,1.1-3.2c0.1-1.2-0.3-2.3-1.1-3.2c-0.7-0.8-1.7-1.3-2.8-1.2
			c-1.1,0-2.1,0.4-2.8,1.2c-0.7,0.9-1.1,2.1-1.1,3.2c-0.1,1.2,0.3,2.3,1.1,3.2c0.7,0.8,1.7,1.3,2.8,1.2
			C250.5,18.6,251.5,18.2,252.2,17.4L252.2,17.4z"/>
		<path class="st0" d="M266.9,23h-3V5.4h4.7l5.4,11.1l5.4-11.1h4.7V23h-3V9.2l-6.2,12.3h-1.7l-6.2-12.3V23z"/>
		<path class="st0" d="M301.1,5.4v2.8h-9.6v4.7h8.6v2.7h-8.6v4.7h9.9V23h-12.9V5.4H301.1z"/>
		<path class="st0" d="M317.9,5.4h3V23h-3.3l-10.1-12.9V23h-3V5.4h3l10.4,13.2V5.4z"/>
		<path class="st0" d="M337.7,7.7c1.8,1.7,2.7,4,2.6,6.4c0.1,2.4-0.8,4.8-2.5,6.5c-1.7,1.6-4.2,2.4-7.7,2.4h-5.9V5.4h6.1
			C333.5,5.4,336,6.1,337.7,7.7z M337.2,14.2c0-4-2.3-6.1-7-6.1h-3v12.1h3.4c1.8,0.1,3.6-0.4,5-1.5
			C336.8,17.5,337.4,15.9,337.2,14.2z"/>
		<path class="st0" d="M358.9,20.6c-3.8,3.5-9.6,3.5-13.4,0c-1.8-1.7-2.8-4.1-2.7-6.5c-0.1-2.5,0.9-4.8,2.7-6.5
			c3.8-3.5,9.6-3.5,13.4,0c1.8,1.7,2.8,4.1,2.7,6.5C361.6,16.5,360.6,18.9,358.9,20.6z M356.6,9.5c-2.5-2.5-6.5-2.5-9,0c0,0,0,0,0,0
			c-1.2,1.2-1.9,2.8-1.8,4.5c0,1.7,0.6,3.3,1.8,4.5c2.5,2.5,6.5,2.5,9,0c0,0,0,0,0,0c1.2-1.2,1.9-2.8,1.8-4.5
			C358.5,12.4,357.8,10.7,356.6,9.5z"/>
		<path class="st0" d="M373.8,8.1h-10.1V5.3H378v2.3l-10.4,12.5v0.1H378V23h-14.7v-2.3L373.8,8.1L373.8,8.1z"/>
		<path class="st0" d="M385.5,19l-1.8,4h-3.2l7.9-17.7h3.2l7.9,17.7h-3.2l-1.8-4H385.5z M393.2,16.2L389.9,9l-3.2,7.3L393.2,16.2z"
			/>
		<polygon class="st0" points="126.3,21.7 131.1,13.3 126.3,4.9 123,4.9 127.6,13.3 122.9,21.7 		"/>
		<polygon class="st0" points="119.7,21.7 124.3,13.3 119.8,4.9 116.2,4.9 120.8,13.3 116.2,21.7 		"/>
		<path class="st0" d="M43.3,10c-0.6-0.3-1.3-0.5-1.9-0.4h-1.5v4h1.8c0.7,0.1,1.3-0.1,1.8-0.6c0.3-0.4,0.5-1,0.5-1.6
			C43.9,10.9,43.7,10.3,43.3,10z"/>
		<polygon class="st0" points="89.6,14.2 92.6,14.2 91.1,10.8 		"/>
		<path class="st0" d="M56,9.9c-0.6-0.3-1.2-0.4-1.8-0.4h-2V13h1.9c0.7,0.1,1.3,0,1.9-0.4c0.4-0.4,0.5-0.9,0.5-1.4
			C56.5,10.7,56.3,10.2,56,9.9z"/>
		<path class="st0" d="M109,23.8l-5.8-10c-0.1-0.2-0.2-0.4,0.1-0.9l0,0l5.9-10l0,0c0.1-0.2,0.2-0.4,0.5-0.4h15l-0.5-0.8
			c-0.5-1.1-1.6-1.8-2.8-1.8H2.2C1,0,0,1,0,2.2c0,0,0,0,0,0v22.2c0,1.2,1,2.2,2.2,2.2h119.1c1.3,0,2.4-0.6,3-1.8l0.5-0.8h-15
			C109.2,24.2,109.1,24,109,23.8z M16.9,19.1H8.1V7.2h8.6v2.4h-5.9v2.4h5.3v2.3h-5.3v2.5h6.1V19.1z M33.4,19.1h-2.6v-7.5l-3.2,6.5
			h-1.6l-3.2-6.5v7.5h-2.6V7.2h3.6l3.1,6.5l3.1-6.5h3.6L33.4,19.1z M45.3,14.8c-1.2,0.8-2.5,1.1-3.9,1h-1.6v3.3h-2.7V7.2h4.2
			c1.4-0.1,2.8,0.3,4,1.1c0.9,0.8,1.4,2,1.2,3.3C46.7,12.8,46.2,14,45.3,14.8L45.3,14.8z M56.7,19.1L54,15.3h-1.8v3.8h-2.6V7.2H54
			c1.4-0.1,2.8,0.2,4,0.9c0.8,0.8,1.3,1.9,1.2,3c0,1.9-0.8,3.1-2.3,3.7l3,4.2L56.7,19.1z M71.5,19.1h-8.8V7.2h8.6v2.4h-5.9v2.4h5.3
			v2.3h-5.3v2.5h6.1L71.5,19.1z M82.1,18.3c-0.9,0.7-2,1.1-3.2,1c-1.9,0-3.7-0.8-5.1-2.1l1.6-1.9c0.9,1,2.2,1.6,3.6,1.7
			c0.4,0,0.8-0.1,1.2-0.3c0.3-0.2,0.4-0.5,0.4-0.9c0-0.3-0.2-0.7-0.4-0.9c-0.5-0.3-1.1-0.5-1.8-0.6c-1.1-0.2-2.1-0.6-3-1.3
			c-0.7-0.6-1.1-1.5-1-2.5c-0.1-1,0.4-2,1.2-2.6c0.9-0.6,1.9-1,3-0.9c0.8,0,1.6,0.1,2.4,0.4c0.8,0.3,1.5,0.6,2.1,1.2l-1.3,1.9
			c-0.9-0.7-2-1.1-3.2-1.2c-0.4,0-0.7,0.1-1,0.3c-0.3,0.2-0.4,0.5-0.4,0.8c0,0.3,0.2,0.7,0.5,0.8c0.7,0.3,1.4,0.6,2.2,0.7
			c1,0.2,1.9,0.6,2.6,1.2c0.7,0.6,1,1.5,0.9,2.4C83.4,16.7,82.9,17.7,82.1,18.3z M94.7,19.1l-1.1-2.6h-5l-1.1,2.6h-2.8l5.1-11.9h2.6
			l5.1,11.9L94.7,19.1z"/>
	</g>
</g>
</svg>
