<svg xmlns="http://www.w3.org/2000/svg" viewBox="0 0 1740 604"><defs><style>.a3f829f2-67a0-4417-bc20-21e9871c292d{fill:none;}</style></defs><title>Recurso 1logo-tween</title><g id="03bf053b-71a6-413c-812f-c45a0b23f5b6" data-name="Capa 2"><g id="b4b10ce4-9756-4edd-a9f0-71d645790742" data-name="pag 1"><g id="3c554669-33cf-4a29-9bce-9ffbd9fadc7c" data-name="landscape-black"><path id="9c6fe2f6-5122-4908-8b00-ad6f606fa1ef" data-name="iso" d="M541.73,274.59Q497,198.08,453.15,121C442.93,103.09,428,95,407.7,95H231.34c-20.06,0-34.79,8.43-44.8,25.82Q142.4,197.58,98,274.17c-10.06,17.34-10.44,34.19,0,51.67L186.49,479.1c10,18,24.89,25.9,45.26,25.9H408.83c19.77,0,34.38-7.95,44.25-25.08q44.19-76.74,88.59-153.17C551.9,309.15,552.14,292.4,541.73,274.59Zm-97.12-43.17L322.52,440c-3.08,5-9,3.51-10-2.07L282,319.5l-88.09-87.83c-4.2-4.41-2.44-9.66,4.08-9.66H439C446.89,222,447,227.17,444.61,231.43Z"/><g id="e0333fbd-63f6-428d-8c16-5fda4feef667" data-name="tween"><path d="M1172,220.09c-26.61,0-48.79,9.91-65.92,29.45-17,19.37-25.58,42.8-25.58,69.64,0,28.36,8.88,52.2,26.41,70.85s40.72,28.25,68.71,28.25c20.17,0,37.5-5,51.52-14.77s24.1-22.06,30.21-36.57a4.75,4.75,0,0,0-2.56-6.24l-29.64-12.29a4.77,4.77,0,0,0-6.21,2.56c-7.7,18.47-22.1,27.44-44,27.44-13.57,0-25.1-3.71-35.23-13.29-9.11-8.6-14.36-18.12-16-33.12h134.72c2.51,0,4.59-2.92,4.73-5.43l.37-6.63c0-.09,0-.42,0-.51,0-29.77-8.39-54.08-24.93-72S1199.51,220.09,1172,220.09ZM1127.09,294c3.32-9,8.44-17.33,15.27-23.16a43,43,0,0,1,28.91-10.7c15.42,0,27.08,4.47,34.66,12.58A47.89,47.89,0,0,1,1217.83,294Z"/><path d="M1369.94,220.09c-26.61,0-48.79,9.91-65.92,29.45-17,19.37-25.58,42.8-25.58,69.64,0,28.36,8.88,52.2,26.41,70.85s40.71,28.25,68.71,28.25c20.17,0,37.51-5,51.52-14.77s24.1-22.06,30.2-36.57a4.76,4.76,0,0,0-2.56-6.24l-29.64-12.29a4.77,4.77,0,0,0-6.21,2.56c-7.7,18.47-22.1,27.44-44.05,27.44-13.57,0-25.09-3.71-35.23-13.29-9.11-8.6-14.36-18.12-16-33.12h134.73c2.51,0,4.6-2.92,4.74-5.43l.36-6.63c0-.09,0-.42,0-.51,0-29.77-8.39-54.08-24.94-72S1397.47,220.09,1369.94,220.09ZM1325,294c3.32-9,8.44-17.33,15.27-23.16a43,43,0,0,1,28.91-10.7c15.42,0,27.08,4.47,34.66,12.58a47.88,47.88,0,0,1,11.9,21.28Z"/><path d="M1630.88,242c-12.8-14.93-31.48-22.5-55.39-22.5a75.51,75.51,0,0,0-37.25,9.74c-7,4-14.24,8.53-18.24,13.61V230.36c0-2.69-.93-4.36-3.63-4.36h-32.68c-2.69,0-6.69,1.67-6.69,4.36v182c0,2.7,4,6.67,6.69,6.67h34.17c2.7,0,3.14-4,3.14-6.67V311.69c0-13.85,4.9-25.67,13.18-36.15,8-10.12,18.58-15,31.24-15,27.32,0,40.58,14.5,40.58,45.63V412.33c0,2.7,2,6.67,4.7,6.67h34.16c2.69,0,5.14-4,5.14-6.67V300.92C1650,276.57,1643.48,256.75,1630.88,242Z"/><path d="M788.06,403.62l-7-33.38a4,4,0,0,0-5.35-2.87,132.26,132.26,0,0,1-13.66,4.38,73.2,73.2,0,0,1-19.29,2.3c-9.89,0-16.66-2.54-20.54-7.79C718.16,360.72,716,351,716,337.31V265h52.95c2.19,0,5.05-2.55,5.05-4.74V225.14c0-2.19-2.87-4.14-5.05-4.14H716V180.1a3.85,3.85,0,0,0-4.5-3.91l-42.13,0a4,4,0,0,0-3.37,3.91V337.66a153.55,153.55,0,0,0,3.3,33,64.13,64.13,0,0,0,11.55,25.55,52.09,52.09,0,0,0,22.37,16.39c9.12,3.65,20.57,5.5,34,5.5a108.58,108.58,0,0,0,28.89-3.45,164.32,164.32,0,0,0,19.62-6.61A4,4,0,0,0,788.06,403.62Z"/><path d="M1090.13,223.27A4.94,4.94,0,0,0,1086,221h-38.79a5,5,0,0,0-4.51,3L999.56,324.3,957.88,224.07a4.94,4.94,0,0,0-4.53-3.07H926.53a5,5,0,0,0-4.52,3.06L879.77,324.38,836.43,224a5,5,0,0,0-4.51-3H793.07a5,5,0,0,0-4.5,7L870,415c.78,1.78,2.54,4,4.5,4h11.74c2,0,3.76-2.21,4.53-4l48.9-117.17L989.2,415.24c.77,1.82,2.55,3.76,4.52,3.76h11.54c2,0,3.72-2.18,4.5-4l80.77-186.57A6,6,0,0,0,1090.13,223.27Z"/></g><rect id="99aef46f-8a1f-4b10-9f9c-f9727c9536ed" data-name="safe zone" class="a3f829f2-67a0-4417-bc20-21e9871c292d" width="1740" height="604"/></g></g></g></svg>