<?xml version="1.0" encoding="utf-8"?>
<!-- Generator: Adobe Illustrator 21.0.2, SVG Export Plug-In . SVG Version: 6.00 Build 0)  -->
<svg version="1.1" id="Capa_1" xmlns="http://www.w3.org/2000/svg" xmlns:xlink="http://www.w3.org/1999/xlink" x="0px" y="0px"
	 viewBox="0 0 1740 604" style="enable-background:new 0 0 1740 604;" xml:space="preserve">
<style type="text/css">
	.st0{fill:#FFFFFF;}
	.st1{fill:none;}
</style>
<title>Recurso 1logo-tween</title>
<g id="_x30_3bf053b-71a6-413c-812f-c45a0b23f5b6">
	<g id="b4b10ce4-9756-4edd-a9f0-71d645790742">
		<g id="_x33_c554669-33cf-4a29-9bce-9ffbd9fadc7c">
			<path id="_x39_c6fe2f6-5122-4908-8b00-ad6f606fa1ef" class="st0" d="M541.7,274.6c-29.8-51-59.3-102.2-88.6-153.6
				c-10.2-17.9-25.1-26-45.4-26H231.3c-20.1,0-34.8,8.4-44.8,25.8C157.1,172,127.6,223.1,98,274.2c-10.1,17.3-10.4,34.2,0,51.7
				l88.5,153.3c10,18,24.9,25.9,45.3,25.9h177.1c19.8,0,34.4-8,44.2-25.1c29.5-51.2,59-102.2,88.6-153.2
				C551.9,309.1,552.1,292.4,541.7,274.6z M444.6,231.4L322.5,440c-3.1,5-9,3.5-10-2.1L282,319.5l-88.1-87.8
				c-4.2-4.4-2.4-9.7,4.1-9.7h241C446.9,222,447,227.2,444.6,231.4L444.6,231.4z"/>
			<g id="e0333fbd-63f6-428d-8c16-5fda4feef667">
				<path class="st0" d="M1172,220.1c-26.6,0-48.8,9.9-65.9,29.4c-17,19.4-25.6,42.8-25.6,69.6c0,28.4,8.9,52.2,26.4,70.9
					s40.7,28.2,68.7,28.2c20.2,0,37.5-5,51.5-14.8s24.1-22.1,30.2-36.6c1-2.4-0.1-5.2-2.5-6.2c0,0,0,0,0,0l-29.6-12.3
					c-2.4-1-5.2,0.1-6.2,2.6c-7.7,18.5-22.1,27.4-44,27.4c-13.6,0-25.1-3.7-35.2-13.3c-9.1-8.6-14.4-18.1-16-33.1h134.7
					c2.5,0,4.6-2.9,4.7-5.4l0.4-6.6c0-0.1,0-0.4,0-0.5c0-29.8-8.4-54.1-24.9-72S1199.5,220.1,1172,220.1z M1127.1,294
					c3.3-9,8.4-17.3,15.3-23.2c8-7,18.3-10.8,28.9-10.7c15.4,0,27.1,4.5,34.7,12.6c5.7,5.9,9.8,13.3,11.9,21.3H1127.1z"/>
				<path class="st0" d="M1369.9,220.1c-26.6,0-48.8,9.9-65.9,29.4c-17,19.4-25.6,42.8-25.6,69.6c0,28.4,8.9,52.2,26.4,70.9
					s40.7,28.2,68.7,28.2c20.2,0,37.5-5,51.5-14.8s24.1-22.1,30.2-36.6c1-2.4-0.1-5.2-2.5-6.2c0,0,0,0,0,0l-29.6-12.3
					c-2.4-1-5.2,0.1-6.2,2.6c-7.7,18.5-22.1,27.4-44.1,27.4c-13.6,0-25.1-3.7-35.2-13.3c-9.1-8.6-14.4-18.1-16-33.1h134.7
					c2.5,0,4.6-2.9,4.7-5.4l0.4-6.6c0-0.1,0-0.4,0-0.5c0-29.8-8.4-54.1-24.9-72S1397.5,220.1,1369.9,220.1z M1325,294
					c3.3-9,8.4-17.3,15.3-23.2c8-7,18.3-10.8,28.9-10.7c15.4,0,27.1,4.5,34.7,12.6c5.7,5.9,9.8,13.3,11.9,21.3L1325,294z"/>
				<path class="st0" d="M1630.9,242c-12.8-14.9-31.5-22.5-55.4-22.5c-13,0-25.9,3.3-37.2,9.7c-7,4-14.2,8.5-18.2,13.6v-12.5
					c0-2.7-0.9-4.4-3.6-4.4h-32.7c-2.7,0-6.7,1.7-6.7,4.4v182c0,2.7,4,6.7,6.7,6.7h34.2c2.7,0,3.1-4,3.1-6.7V311.7
					c0-13.9,4.9-25.7,13.2-36.1c8-10.1,18.6-15,31.2-15c27.3,0,40.6,14.5,40.6,45.6v106.2c0,2.7,2,6.7,4.7,6.7h34.2
					c2.7,0,5.1-4,5.1-6.7V300.9C1650,276.6,1643.5,256.8,1630.9,242z"/>
				<path class="st0" d="M788.1,403.6l-7-33.4c-0.5-2.2-2.6-3.5-4.8-3c-0.2,0-0.4,0.1-0.6,0.2c-4.5,1.7-9,3.2-13.7,4.4
					c-6.3,1.6-12.8,2.4-19.3,2.3c-9.9,0-16.7-2.5-20.5-7.8c-4.1-5.5-6.2-15.3-6.2-28.9V265h53c2.2,0,5-2.5,5-4.7v-35.1
					c0-2.2-2.9-4.1-5-4.1h-53v-40.9c0.1-2.1-1.6-3.9-3.7-4c-0.3,0-0.5,0-0.8,0.1h-42.1c-1.9,0.3-3.4,2-3.4,3.9v157.6
					c-0.1,11.1,1,22.2,3.3,33c1.9,9.3,5.9,18,11.5,25.5c5.8,7.4,13.6,13,22.4,16.4c9.1,3.6,20.6,5.5,34,5.5c9.7,0.2,19.5-1,28.9-3.5
					c6.7-1.8,13.2-4,19.6-6.6C787.4,407.3,788.4,405.5,788.1,403.6z"/>
				<path class="st0" d="M1090.1,223.3c-0.9-1.4-2.5-2.3-4.1-2.3h-38.8c-2,0-3.7,1.2-4.5,3l-43.1,100.3l-41.7-100.2
					c-0.8-1.8-2.5-3.1-4.5-3.1h-26.8c-2,0-3.8,1.2-4.5,3.1l-42.2,100.3L836.4,224c-0.8-1.8-2.5-3-4.5-3h-38.8c-2.8,0-5,2.3-4.9,5.1
					c0,0.7,0.2,1.3,0.4,1.9L870,415c0.8,1.8,2.5,4,4.5,4h11.7c2,0,3.8-2.2,4.5-4l48.9-117.2l49.5,117.4c0.8,1.8,2.5,3.8,4.5,3.8
					h11.5c2,0,3.7-2.2,4.5-4l80.8-186.6C1091.2,226.7,1091,224.8,1090.1,223.3z"/>
			</g>
			<rect id="_x39_9aef46f-8a1f-4b10-9f9c-f9727c9536ed" class="st1" width="1740" height="604"/>
		</g>
	</g>
</g>
</svg>
